<svg width="46" height="49" fill="none" xmlns="http://www.w3.org/2000/svg"><path d="M5.123 21.32 16.599 7.36l17.721 3.543 6.041 16.93-11.722 13.27-17.475-2.852-6.041-16.93Z" stroke="#F80" stroke-width="3"/><path d="M23.29 28.875c.1.19.15.36.15.51.01.14-.03.265-.12.375-.09.1-.24.205-.45.315-.32.15-.57.19-.75.12-.17-.07-.33-.265-.48-.585l-3.345-7.065-3.33 7.065c-.15.31-.315.495-.495.555-.18.07-.43.035-.75-.105-.2-.1-.35-.205-.45-.315a.537.537 0 0 1-.12-.39c.02-.16.085-.35.195-.57l4.125-8.595a.894.894 0 0 1 .345-.375.922.922 0 0 1 .825-.09c.1.04.19.1.27.18.09.08.165.18.225.3l4.155 8.67Zm-7.665-1.455.72-1.545h3.915l.72 1.545h-5.355Zm13.846 2.79c-.49 0-.985-.07-1.485-.21-.5-.15-.98-.37-1.44-.66-.46-.3-.87-.665-1.23-1.095-.35-.44-.63-.945-.84-1.515a5.604 5.604 0 0 1-.315-1.92c0-.69.105-1.31.315-1.86.21-.56.49-1.05.84-1.47.36-.42.765-.77 1.215-1.05.46-.28.94-.49 1.44-.63.51-.15 1.015-.23 1.515-.24.51 0 .95.055 1.32.165.37.11.67.23.9.36.23.12.385.205.465.255.16.1.31.215.45.345a.6.6 0 0 1 .24.45c.01.12-.005.23-.045.33-.04.09-.095.185-.165.285-.12.17-.24.295-.36.375-.12.08-.24.12-.36.12a.603.603 0 0 1-.315-.09 25.59 25.59 0 0 0-.345-.225c-.06-.04-.17-.1-.33-.18a2.46 2.46 0 0 0-.615-.24 3.437 3.437 0 0 0-.915-.105c-.43 0-.85.075-1.26.225-.41.15-.78.375-1.11.675-.32.29-.575.655-.765 1.095-.19.43-.285.925-.285 1.485s.095 1.06.285 1.5c.19.43.445.795.765 1.095.33.29.7.51 1.11.66.41.15.83.225 1.26.225.34 0 .63-.03.87-.09.25-.07.46-.15.63-.24l.405-.225c.11-.07.215-.135.315-.195s.205-.09.315-.09c.12 0 .235.04.345.12.12.08.235.21.345.39.07.11.125.215.165.315.04.1.055.205.045.315a.647.647 0 0 1-.24.465c-.14.12-.29.225-.45.315-.08.05-.235.14-.465.27-.22.12-.515.23-.885.33-.37.11-.815.165-1.335.165Z" fill="#F80"/></svg>