<svg width="46" height="49" viewBox="0 0 46 49" fill="none" xmlns="http://www.w3.org/2000/svg">
<path d="M5.12294 21.3201L16.5991 7.35996L34.3201 10.9027L40.3611 27.8338L28.6385 41.103L11.1639 38.2512L5.12294 21.3201Z" stroke="#FF8800" stroke-width="3"></path>
<path d="M23.29 28.875C23.39 29.065 23.44 29.235 23.44 29.385C23.45 29.525 23.41 29.65 23.32 29.76C23.23 29.86 23.08 29.965 22.87 30.075C22.55 30.225 22.3 30.265 22.12 30.195C21.95 30.125 21.79 29.93 21.64 29.61L18.295 22.545L14.965 29.61C14.815 29.92 14.65 30.105 14.47 30.165C14.29 30.235 14.04 30.2 13.72 30.06C13.52 29.96 13.37 29.855 13.27 29.745C13.18 29.635 13.14 29.505 13.15 29.355C13.17 29.195 13.235 29.005 13.345 28.785L17.47 20.19C17.55 20.03 17.665 19.905 17.815 19.815C17.975 19.715 18.14 19.665 18.31 19.665C18.43 19.665 18.54 19.685 18.64 19.725C18.74 19.765 18.83 19.825 18.91 19.905C19 19.985 19.075 20.085 19.135 20.205L23.29 28.875ZM15.625 27.42L16.345 25.875H20.26L20.98 27.42H15.625ZM29.4708 30.21C28.9808 30.21 28.4858 30.14 27.9858 30C27.4858 29.85 27.0058 29.63 26.5458 29.34C26.0858 29.04 25.6758 28.675 25.3158 28.245C24.9658 27.805 24.6858 27.3 24.4758 26.73C24.2658 26.15 24.1608 25.51 24.1608 24.81C24.1608 24.12 24.2658 23.5 24.4758 22.95C24.6858 22.39 24.9658 21.9 25.3158 21.48C25.6758 21.06 26.0808 20.71 26.5308 20.43C26.9908 20.15 27.4708 19.94 27.9708 19.8C28.4808 19.65 28.9858 19.57 29.4858 19.56C29.9958 19.56 30.4358 19.615 30.8058 19.725C31.1758 19.835 31.4758 19.955 31.7058 20.085C31.9358 20.205 32.0908 20.29 32.1708 20.34C32.3308 20.44 32.4808 20.555 32.6208 20.685C32.7708 20.805 32.8508 20.955 32.8608 21.135C32.8708 21.255 32.8558 21.365 32.8158 21.465C32.7758 21.555 32.7208 21.65 32.6508 21.75C32.5308 21.92 32.4108 22.045 32.2908 22.125C32.1708 22.205 32.0508 22.245 31.9308 22.245C31.8208 22.245 31.7158 22.215 31.6158 22.155C31.5258 22.095 31.4108 22.02 31.2708 21.93C31.2108 21.89 31.1008 21.83 30.9408 21.75C30.7908 21.66 30.5858 21.58 30.3258 21.51C30.0758 21.44 29.7708 21.405 29.4108 21.405C28.9808 21.405 28.5608 21.48 28.1508 21.63C27.7408 21.78 27.3708 22.005 27.0408 22.305C26.7208 22.595 26.4658 22.96 26.2758 23.4C26.0858 23.83 25.9908 24.325 25.9908 24.885C25.9908 25.445 26.0858 25.945 26.2758 26.385C26.4658 26.815 26.7208 27.18 27.0408 27.48C27.3708 27.77 27.7408 27.99 28.1508 28.14C28.5608 28.29 28.9808 28.365 29.4108 28.365C29.7508 28.365 30.0408 28.335 30.2808 28.275C30.5308 28.205 30.7408 28.125 30.9108 28.035C31.0908 27.935 31.2258 27.86 31.3158 27.81C31.4258 27.74 31.5308 27.675 31.6308 27.615C31.7308 27.555 31.8358 27.525 31.9458 27.525C32.0658 27.525 32.1808 27.565 32.2908 27.645C32.4108 27.725 32.5258 27.855 32.6358 28.035C32.7058 28.145 32.7608 28.25 32.8008 28.35C32.8408 28.45 32.8558 28.555 32.8458 28.665C32.8358 28.845 32.7558 29 32.6058 29.13C32.4658 29.25 32.3158 29.355 32.1558 29.445C32.0758 29.495 31.9208 29.585 31.6908 29.715C31.4708 29.835 31.1758 29.945 30.8058 30.045C30.4358 30.155 29.9908 30.21 29.4708 30.21Z" fill="#FF8800"></path>
</svg>
